<svg width="39" height="39" viewBox="0 0 39 39" fill="none" xmlns="http://www.w3.org/2000/svg">
<g clip-path="url(#clip0_336_1597)">
<path d="M19.5 4.875C22.3926 4.875 25.2201 5.73274 27.6252 7.33976C30.0303 8.94678 31.9048 11.2309 33.0117 13.9033C34.1187 16.5756 34.4083 19.5162 33.844 22.3532C33.2797 25.1902 31.8868 27.7961 29.8414 29.8414C27.7961 31.8868 25.1902 33.2797 22.3532 33.844C19.5162 34.4083 16.5756 34.1187 13.9033 33.0117C11.2309 31.9048 8.94677 30.0303 7.33976 27.6252C5.73274 25.2201 4.875 22.3926 4.875 19.5C4.89634 15.6278 6.44403 11.9202 9.18214 9.18214C11.9202 6.44403 15.6278 4.89634 19.5 4.875ZM19.5 1.625C15.9647 1.625 12.5087 2.67335 9.56918 4.63748C6.62965 6.60161 4.33857 9.39331 2.98565 12.6595C1.63274 15.9258 1.27875 19.5198 1.96846 22.9872C2.65817 26.4547 4.3606 29.6397 6.86047 32.1395C9.36033 34.6394 12.5454 36.3418 16.0128 37.0315C19.4802 37.7212 23.0742 37.3673 26.3405 36.0143C29.6067 34.6614 32.3984 32.3703 34.3625 29.4308C36.3267 26.4913 37.375 23.0353 37.375 19.5C37.3858 17.1496 36.9308 14.8204 36.0363 12.6468C35.1418 10.4733 33.8255 8.49848 32.1635 6.83649C30.5015 5.17449 28.5267 3.85824 26.3532 2.96375C24.1796 2.06925 21.8504 1.61425 19.5 1.625Z" fill="black"/>
<path d="M27.0562 10.8062L16.25 16.25L10.8063 27.0562C10.7512 27.2148 10.7419 27.3857 10.7794 27.5494C10.817 27.713 10.8998 27.8627 11.0186 27.9814C11.1373 28.1001 11.287 28.183 11.4506 28.2206C11.6143 28.2581 11.7852 28.2488 11.9438 28.1937L22.75 22.75L28.1938 11.9437C28.2488 11.7852 28.2581 11.6143 28.2206 11.4506C28.183 11.287 28.1002 11.1373 27.9814 11.0185C27.8627 10.8998 27.713 10.817 27.5494 10.7794C27.3857 10.7419 27.2148 10.7512 27.0562 10.8062ZM19.5 21.125C19.1786 21.125 18.8644 21.0297 18.5972 20.8511C18.33 20.6726 18.1217 20.4188 17.9987 20.1219C17.8757 19.8249 17.8435 19.4982 17.9062 19.183C17.9689 18.8678 18.1237 18.5782 18.351 18.3509C18.5782 18.1237 18.8678 17.9689 19.183 17.9062C19.4982 17.8435 19.8249 17.8757 20.1219 17.9987C20.4188 18.1217 20.6726 18.33 20.8511 18.5972C21.0297 18.8644 21.125 19.1786 21.125 19.5C21.125 19.931 20.9538 20.3443 20.649 20.649C20.3443 20.9538 19.931 21.125 19.5 21.125Z" fill="black"/>
</g>
<defs>
<clipPath id="clip0_336_1597">
<rect width="39" height="39" fill="white"/>
</clipPath>
</defs>
</svg>
