<svg width="165" height="54" viewBox="0 0 165 54" fill="none" xmlns="http://www.w3.org/2000/svg">
<path d="M32.7609 14.592C27.8351 11.9729 21.433 13.95 18.7905 18.9198C16.0234 24.1239 18.0287 32.0166 19.2922 37.4864C19.2966 37.508 19.5118 38.3714 20.1595 38.7158L20.217 38.7463C20.8647 39.0907 21.697 38.7843 21.7181 38.7763C26.636 36.8904 34.1694 33.4751 36.8132 28.5027C39.4557 23.5329 38.4324 17.6076 32.7609 14.592ZM21.139 37.1762C21.0987 37.1885 21.0448 37.1974 20.9981 37.2038C20.9761 37.1618 20.9545 37.1118 20.9407 37.0708L20.7881 36.4102C19.5856 31.2334 17.939 24.1445 20.2924 19.7184C22.501 15.5645 27.8455 13.9045 31.9625 16.0935C37.0908 18.8203 37.3397 23.8893 35.3113 27.7041C33.5247 31.0642 28.7559 34.2513 21.139 37.1762ZM30.2833 19.1076C27.7951 17.7846 24.705 18.7293 23.3819 21.2176C22.0589 23.7059 23.0036 26.796 25.4919 28.119C27.9802 29.442 31.0703 28.4973 32.3933 26.009C33.7163 23.5208 32.7716 20.4307 30.2833 19.1076ZM26.2905 26.6171C24.6343 25.7365 23.986 23.6213 24.8668 21.9647C25.7474 20.3085 27.8115 19.6775 29.4678 20.5581C31.1251 21.4393 31.755 23.5028 30.8744 25.159C29.9943 26.816 27.9478 27.4983 26.2905 26.6171Z" fill="white" stroke="white" stroke-width="1.06142"/>
<path d="M9.09741 14.9461C4.17157 17.5652 2.23067 23.9784 4.87314 28.9481C7.64019 34.1522 15.3049 36.9034 20.5461 38.9145C20.5665 38.9229 21.4026 39.2273 22.0503 38.8829L22.1077 38.8524C22.7554 38.508 22.9669 37.6466 22.972 37.6246C24.1586 32.4929 25.5397 24.3377 22.8959 19.3653C20.2534 14.3955 14.7689 11.9305 9.09741 14.9461ZM21.3216 37.21C21.3093 37.2502 21.2866 37.2999 21.2657 37.3423C21.2186 37.337 21.1651 37.3269 21.1234 37.3154L20.4904 37.0726C15.5262 35.1746 8.72844 32.5757 6.37504 28.1496C4.16639 23.9957 5.77871 18.6367 9.89578 16.4476C15.024 13.7209 19.3656 16.349 21.394 20.1639C23.1806 23.524 23.1561 29.2597 21.3216 37.21ZM11.4556 19.5252C8.9673 20.8482 8.02256 23.9383 9.34559 26.4266C10.6686 28.9148 13.7587 29.8596 16.247 28.5365C18.7352 27.2135 19.68 24.1234 18.357 21.6351C17.0339 19.1469 13.9438 18.2021 11.4556 19.5252ZM15.4484 27.0346C13.7922 27.9153 11.6762 27.2699 10.7953 25.6133C9.91472 23.9571 10.5458 21.893 12.202 21.0124C13.8593 20.1312 15.9223 20.7628 16.8029 22.419C17.6845 24.0752 17.1058 26.1534 15.4484 27.0346Z" fill="white" stroke="white" stroke-width="1.06142"/>
<path d="M45.3803 38.0002V15.3791H54.4376C56.1018 15.3791 57.4898 15.6258 58.6017 16.1192C59.7137 16.6126 60.5494 17.2974 61.1091 18.1737C61.6687 19.0426 61.9485 20.044 61.9485 21.178C61.9485 22.0617 61.7718 22.8385 61.4183 23.5086C61.0649 24.1713 60.5789 24.7162 59.9603 25.1433C59.3492 25.5631 58.6496 25.8613 57.8617 26.038V26.2589C58.7232 26.2957 59.5296 26.5387 60.2807 26.9879C61.0391 27.4371 61.654 28.0667 62.1252 28.8767C62.5965 29.6793 62.8322 30.6366 62.8322 31.7485C62.8322 32.9488 62.5339 34.0202 61.9375 34.9627C61.3484 35.8979 60.4758 36.638 59.3197 37.1829C58.1636 37.7278 56.7387 38.0002 55.0451 38.0002H45.3803ZM50.163 34.0902H54.0621C55.3949 34.0902 56.3669 33.8361 56.9781 33.328C57.5892 32.8126 57.8948 32.1277 57.8948 31.2736C57.8948 30.6477 57.7439 30.0954 57.442 29.6167C57.1401 29.1381 56.7093 28.7626 56.1497 28.4901C55.5974 28.2177 54.9383 28.0814 54.1725 28.0814H50.163V34.0902ZM50.163 24.8451H53.7086C54.364 24.8451 54.9457 24.731 55.4538 24.5027C55.9692 24.2671 56.3742 23.9357 56.6688 23.5086C56.9707 23.0815 57.1217 22.5697 57.1217 21.9733C57.1217 21.1559 56.8308 20.4969 56.2491 19.9962C55.6747 19.4954 54.8573 19.2451 53.797 19.2451H50.163V24.8451ZM65.8559 38.0002V21.0344H70.4176V23.9946H70.5944C70.9036 22.9416 71.4228 22.1463 72.1518 21.6088C72.8808 21.0639 73.7202 20.7914 74.6701 20.7914C74.9058 20.7914 75.1598 20.8062 75.4323 20.8356C75.7047 20.8651 75.944 20.9056 76.1502 20.9571V25.1323C75.9293 25.066 75.6237 25.0071 75.2334 24.9556C74.8432 24.904 74.486 24.8782 74.162 24.8782C73.4699 24.8782 72.8513 25.0292 72.3064 25.3311C71.7689 25.6257 71.3418 26.038 71.0251 26.5682C70.7159 27.0984 70.5612 27.7096 70.5612 28.4017V38.0002H65.8559ZM85.525 38.3316C83.7799 38.3316 82.2777 37.9782 81.0185 37.2712C79.7667 36.557 78.802 35.5482 78.1246 34.2448C77.4471 32.9341 77.1084 31.384 77.1084 29.5947C77.1084 27.8495 77.4471 26.3178 78.1246 24.9997C78.802 23.6817 79.7556 22.6544 80.9854 21.9181C82.2225 21.1817 83.6731 20.8135 85.3373 20.8135C86.4565 20.8135 87.4985 20.9939 88.4631 21.3547C89.4351 21.7082 90.282 22.2421 91.0036 22.9563C91.7326 23.6706 92.2996 24.569 92.7046 25.6514C93.1096 26.7265 93.3121 27.9857 93.3121 29.429V30.7213H78.9861V27.8053H88.8829C88.8829 27.1278 88.7356 26.5277 88.441 26.0049C88.1465 25.4821 87.7378 25.0734 87.215 24.7788C86.6995 24.4769 86.0994 24.326 85.4146 24.326C84.7003 24.326 84.067 24.4917 83.5148 24.823C82.9699 25.147 82.5428 25.5852 82.2335 26.1374C81.9242 26.6823 81.7659 27.2898 81.7585 27.9599V30.7323C81.7585 31.5718 81.9132 32.2971 82.2225 32.9083C82.5391 33.5195 82.9846 33.9907 83.559 34.3221C84.1333 34.6535 84.8145 34.8192 85.6024 34.8192C86.1252 34.8192 86.6038 34.7455 87.0383 34.5982C87.4727 34.451 87.8446 34.2301 88.1539 33.9355C88.4631 33.641 88.6988 33.2802 88.8608 32.8531L93.2127 33.1402C92.9918 34.1859 92.5389 35.099 91.8541 35.8795C91.1766 36.6527 90.3004 37.2565 89.2253 37.691C88.1575 38.1181 86.9241 38.3316 85.525 38.3316ZM101.088 28.1919V38.0002H96.3827V21.0344H100.867V24.0277H101.066C101.442 23.041 102.071 22.2605 102.955 21.6861C103.838 21.1044 104.91 20.8135 106.169 20.8135C107.347 20.8135 108.374 21.0712 109.251 21.5867C110.127 22.1022 110.808 22.8385 111.294 23.7958C111.78 24.7457 112.023 25.8797 112.023 27.1978V38.0002H107.318V28.0372C107.325 26.999 107.06 26.189 106.522 25.6072C105.985 25.0182 105.245 24.7236 104.302 24.7236C103.669 24.7236 103.109 24.8598 102.623 25.1323C102.145 25.4047 101.769 25.8024 101.497 26.3252C101.232 26.8407 101.095 27.4629 101.088 28.1919ZM121.983 38.2764C120.695 38.2764 119.528 37.945 118.482 37.2823C117.444 36.6122 116.619 35.6292 116.008 34.3332C115.404 33.0298 115.102 31.4319 115.102 29.5394C115.102 27.5954 115.415 25.9791 116.041 24.6905C116.667 23.3945 117.499 22.4262 118.537 21.7855C119.583 21.1375 120.728 20.8135 121.972 20.8135C122.922 20.8135 123.714 20.9755 124.347 21.2995C124.988 21.6162 125.503 22.0138 125.893 22.4924C126.291 22.9637 126.593 23.4276 126.799 23.8842H126.943V15.3791H131.637V38.0002H126.998V35.2831H126.799C126.578 35.7543 126.265 36.2219 125.86 36.6858C125.463 37.1424 124.944 37.5216 124.303 37.8235C123.67 38.1254 122.896 38.2764 121.983 38.2764ZM123.474 34.532C124.233 34.532 124.874 34.3258 125.396 33.9134C125.927 33.4937 126.332 32.9083 126.611 32.1572C126.899 31.4061 127.042 30.5262 127.042 29.5173C127.042 28.5085 126.902 27.6322 126.622 26.8885C126.343 26.1448 125.938 25.5704 125.407 25.1654C124.877 24.7604 124.233 24.5579 123.474 24.5579C122.701 24.5579 122.05 24.7678 121.519 25.1875C120.989 25.6072 120.588 26.189 120.315 26.9327C120.043 27.6764 119.907 28.538 119.907 29.5173C119.907 30.5041 120.043 31.3767 120.315 32.1351C120.595 32.8862 120.997 33.4753 121.519 33.9024C122.05 34.3221 122.701 34.532 123.474 34.532ZM143.171 38.3316C141.456 38.3316 139.972 37.9671 138.72 37.2381C137.476 36.5017 136.515 35.4782 135.837 34.1675C135.16 32.8494 134.821 31.3214 134.821 29.5836C134.821 27.8311 135.16 26.2994 135.837 24.9887C136.515 23.6706 137.476 22.6471 138.72 21.9181C139.972 21.1817 141.456 20.8135 143.171 20.8135C144.887 20.8135 146.367 21.1817 147.612 21.9181C148.863 22.6471 149.828 23.6706 150.505 24.9887C151.183 26.2994 151.522 27.8311 151.522 29.5836C151.522 31.3214 151.183 32.8494 150.505 34.1675C149.828 35.4782 148.863 36.5017 147.612 37.2381C146.367 37.9671 144.887 38.3316 143.171 38.3316ZM143.193 34.6866C143.974 34.6866 144.626 34.4657 145.148 34.0239C145.671 33.5747 146.065 32.9635 146.33 32.1903C146.603 31.4172 146.739 30.5372 146.739 29.5505C146.739 28.5637 146.603 27.6838 146.33 26.9106C146.065 26.1374 145.671 25.5262 145.148 25.0771C144.626 24.6279 143.974 24.4033 143.193 24.4033C142.405 24.4033 141.743 24.6279 141.205 25.0771C140.675 25.5262 140.274 26.1374 140.001 26.9106C139.736 27.6838 139.604 28.5637 139.604 29.5505C139.604 30.5372 139.736 31.4172 140.001 32.1903C140.274 32.9635 140.675 33.5747 141.205 34.0239C141.743 34.4657 142.405 34.6866 143.193 34.6866Z" fill="white"/>
</svg>
