<svg width="39" height="39" viewBox="0 0 39 39" fill="none" xmlns="http://www.w3.org/2000/svg">
<path fill-rule="evenodd" clip-rule="evenodd" d="M26.6337 21.3974C26.6337 22.1835 25.9923 22.8206 25.2014 22.8206H14.3986C13.6076 22.8206 12.9664 22.1835 12.9664 21.3974C12.9664 20.6115 13.6076 19.9744 14.3986 19.9744H25.2014C25.9923 19.9744 26.6337 20.6115 26.6337 21.3974Z" fill="black"/>
<path fill-rule="evenodd" clip-rule="evenodd" d="M19.8 14.6076C20.5911 14.6076 21.2323 15.2447 21.2323 16.0307V26.7642C21.2323 27.5501 20.5911 28.1872 19.8 28.1872C19.0089 28.1872 18.3677 27.5501 18.3677 26.7642V16.0307C18.3677 15.2447 19.0089 14.6076 19.8 14.6076Z" fill="black"/>
<path fill-rule="evenodd" clip-rule="evenodd" d="M14.1914 2.60373C14.7854 1.6372 15.8274 1 17.0026 1H22.5974C23.7725 1 24.8146 1.6372 25.4086 2.60373L26.4563 4.30826C27.4914 4.38876 28.473 4.47535 29.3297 4.55596C31.8246 4.79069 33.7682 6.7675 33.9642 9.2421C34.2272 12.5678 34.6 17.978 34.6 21.9871C34.6 25.7708 34.2685 30.0666 34.0095 32.8496C33.7829 35.2866 31.8518 37.1993 29.4056 37.4306C26.7475 37.6816 22.7966 38 19.8 38C16.8034 38 12.8525 37.6816 10.1944 37.4306C7.74814 37.1993 5.81716 35.2866 5.59045 32.8496C5.33152 30.0666 5 25.7708 5 21.9871C5 17.978 5.37276 12.5678 5.6359 9.2421C5.83169 6.7675 7.77544 4.79069 10.2703 4.55596C11.1271 4.47535 12.1086 4.38876 13.1437 4.30826L14.1914 2.60373ZM12.4452 7.22013C11.7678 7.27668 11.1251 7.33442 10.5403 7.38944C9.43891 7.49307 8.57892 8.36167 8.4916 9.46517C8.22858 12.7892 7.86452 18.1007 7.86452 21.9871C7.86452 25.6374 8.18618 29.8293 8.44279 32.5876C8.54227 33.6568 9.38394 34.495 10.4655 34.5971C13.1173 34.8476 16.9506 35.1538 19.8 35.1538C22.6494 35.1538 26.4828 34.8476 29.1344 34.5971C30.2161 34.495 31.0578 33.6568 31.1572 32.5876C31.4137 29.8293 31.7355 25.6374 31.7355 21.9871C31.7355 18.1007 31.3714 12.7892 31.1083 9.46517C31.0212 8.36167 30.1611 7.49307 29.0596 7.38946C28.4748 7.33442 27.8321 7.27668 27.1549 7.22013C27.0801 7.62355 26.9388 8.00854 26.7414 8.35577C26.2017 9.30454 25.182 10.06 23.8704 10.06H15.7296C14.4181 10.06 13.3982 9.30454 12.8586 8.35577C12.6612 8.00854 12.5198 7.62355 12.4452 7.22013ZM17.0026 3.84615C16.9009 3.84615 16.7503 3.90119 16.6361 4.08713L15.3629 6.15843C15.3442 6.18894 15.3283 6.21928 15.3148 6.24932C15.2121 6.47844 15.2334 6.74614 15.3525 6.95558C15.4662 7.15541 15.6078 7.21389 15.7296 7.21389H23.8704C23.9921 7.21389 24.1338 7.15541 24.2474 6.95558C24.3665 6.74614 24.3878 6.47844 24.2851 6.24932C24.2716 6.21928 24.2557 6.18894 24.237 6.15843L22.9639 4.08713C22.8497 3.90119 22.6991 3.84615 22.5974 3.84615H17.0026Z" fill="black"/>
</svg>
