<svg width="39" height="39" viewBox="0 0 39 39" fill="none" xmlns="http://www.w3.org/2000/svg">
<g clip-path="url(#clip0_336_1614)">
<path d="M32.9547 36.1617C32.911 36.1617 32.8666 36.1557 32.8225 36.143L11.2077 29.9914C11.0847 29.9563 10.9808 29.8742 10.9185 29.7624C10.8565 29.6506 10.8413 29.5187 10.8761 29.3959L11.7492 26.3283L5.21487 27.8548C5.09034 27.8841 4.95945 27.8623 4.85093 27.7948C4.7424 27.7272 4.6651 27.6194 4.636 27.4949L0.0125609 7.70364C-0.0163536 7.57911 0.00504314 7.44842 0.0727032 7.3397C0.14017 7.23118 0.247925 7.15388 0.372451 7.12477L22.2565 2.01268C22.5146 1.95234 22.7747 2.11311 22.8354 2.37238L25.0362 11.7935L38.6499 15.6682C38.9059 15.7411 39.0543 16.0077 38.9815 16.2637L33.4181 35.8115C33.3578 36.0233 33.1646 36.1617 32.9547 36.1617ZM11.935 29.1964L32.623 35.0842L37.9224 16.4632L24.5471 12.6565C24.5313 12.6536 24.5155 12.6501 24.4999 12.6455L17.2341 10.5776L11.935 29.1964ZM1.06081 7.95385L5.46507 26.8067L12.0416 25.2702L13.0856 21.6023L5.82149 23.299C5.56415 23.3601 5.30334 23.1986 5.24262 22.9393L2.01615 9.12739C1.98723 9.00287 2.00863 8.87217 2.0761 8.76345C2.14376 8.65493 2.25151 8.57763 2.37604 8.54852L21.0913 4.17664C21.2156 4.14773 21.3465 4.16893 21.4552 4.23679C21.5637 4.30425 21.641 4.41201 21.6701 4.53653L23.2464 11.2842L23.976 11.492L22.0065 3.06112L1.06081 7.95385ZM3.0642 9.3776L6.0717 22.2509L13.3873 20.5421L16.4308 9.84794C16.4659 9.72496 16.548 9.62106 16.6598 9.5588C16.7363 9.5162 16.8233 9.49596 16.9085 9.49827C16.9511 9.49866 16.9935 9.50463 17.0351 9.51658L22.186 10.9824L20.8409 5.22489L3.0642 9.3776ZM32.5572 31.5822C32.5131 31.5822 32.4686 31.5763 32.4252 31.5637L13.9401 26.3026C13.6841 26.2298 13.5357 25.9632 13.6086 25.7072L17.4914 12.0651C17.5265 11.9421 17.6086 11.8382 17.7204 11.776C17.8324 11.7137 17.9641 11.6985 18.0868 11.7336L36.5717 16.9947C36.8277 17.0675 36.9761 17.3341 36.9033 17.5901L33.0206 31.2322C32.9855 31.3552 32.9034 31.4591 32.7916 31.5213C32.7193 31.5618 32.6386 31.5822 32.5572 31.5822ZM14.6678 25.5077L32.2259 30.5049L35.8444 17.7896L18.2866 12.7924L14.6678 25.5077Z" fill="black" stroke="black" stroke-width="0.002"/>
</g>
<defs>
<clipPath id="clip0_336_1614">
<rect width="39" height="39" fill="white"/>
</clipPath>
</defs>
</svg>
