<svg width="39" height="39" viewBox="0 0 39 39" fill="none" xmlns="http://www.w3.org/2000/svg">
<g clip-path="url(#clip0_400_719)">
<path fill-rule="evenodd" clip-rule="evenodd" d="M8.86364 4.5454V2.7727C8.86364 1.79367 9.6573 1 10.6363 1C11.6154 1 12.409 1.79367 12.409 2.7727V4.5454H15.924C15.9427 4.5451 15.9615 4.5451 15.9805 4.5454H19.4998C20.4789 4.5454 21.2725 5.33908 21.2725 6.3181C21.2725 7.29713 20.4789 8.0908 19.4998 8.0908H17.4518C16.5724 12.5804 14.6802 16.7243 11.7905 20.5148C13.6857 22.6163 15.9669 24.4668 18.6394 26.0704C19.4789 26.5742 19.7512 27.663 19.2474 28.5026C18.7438 29.3421 17.6548 29.6142 16.8153 29.1106C13.9928 27.4171 11.5467 25.4601 9.48176 23.2428C7.57216 25.2869 5.34508 27.2174 2.8032 29.033C2.00653 29.602 0.899375 29.4176 0.330338 28.6208C-0.238722 27.8242 -0.054198 26.7171 0.742473 26.1481C3.24062 24.3637 5.39383 22.4757 7.20546 20.4827C5.7743 18.5146 4.59583 16.3755 3.67253 14.0673C3.30892 13.1583 3.75107 12.1266 4.66007 11.763C5.56909 11.3994 6.60075 11.8415 6.96435 12.7505C7.65608 14.4798 8.5093 16.1008 9.52557 17.6143C11.6379 14.6538 13.0693 11.4809 13.8293 8.0908H1.77284C0.793793 8.0908 0.000135257 7.29713 0.000135257 6.3181C0.000135257 5.33908 0.793793 4.5454 1.77284 4.5454H8.86364ZM32.6003 31.1359H24.1264L21.1543 38.8631C20.803 39.7769 19.7773 40.2327 18.8634 39.8812C17.9496 39.5298 17.4939 38.5041 17.8454 37.5903L26.7089 14.5452C27.2916 13.0301 29.4351 13.0301 30.0178 14.5452L38.8813 37.5903C39.2328 38.5041 38.7771 39.5298 37.8633 39.8812C36.9494 40.2327 35.9237 39.7769 35.5724 38.8631L32.6003 31.1359ZM31.2367 27.5905L28.3633 20.1198L25.49 27.5905H31.2367Z" fill="black"/>
</g>
<defs>
<clipPath id="clip0_400_719">
<rect width="39" height="39" fill="white"/>
</clipPath>
</defs>
</svg>
