<svg width="35" height="29" viewBox="0 0 35 29" fill="none" xmlns="http://www.w3.org/2000/svg">
<path d="M27.3967 4.15986C23.2919 1.97727 17.9568 3.62488 15.7547 7.76635C13.4488 12.1031 15.1199 18.6804 16.1728 23.2385C16.1765 23.2565 16.3558 23.976 16.8956 24.263L16.9434 24.2884C17.4832 24.5754 18.1768 24.3201 18.1944 24.3134C22.2926 22.7418 28.5704 19.8957 30.7737 15.7521C32.9757 11.6106 32.123 6.67286 27.3967 4.15986ZM17.7118 22.98C17.6782 22.9902 17.6333 22.9977 17.5943 23.003C17.576 22.968 17.5581 22.9264 17.5466 22.8922L17.4194 22.3417C16.4173 18.0277 15.0451 12.1202 17.0063 8.43182C18.8468 4.97027 23.3005 3.58689 26.7314 5.41113C31.0049 7.68339 31.2124 11.9076 29.5221 15.0866C28.0332 17.8867 24.0592 20.5426 17.7118 22.98ZM25.3321 7.92286C23.2585 6.82034 20.6834 7.60762 19.5809 9.68117C18.4784 11.7547 19.2657 14.3298 21.3392 15.4323C23.4128 16.5349 25.9879 15.7476 27.0904 13.674C28.1929 11.6005 27.4056 9.02539 25.3321 7.92286ZM22.0047 14.1808C20.6245 13.4469 20.0843 11.6843 20.8183 10.3038C21.5522 8.92362 23.2723 8.39774 24.6524 9.13159C26.0335 9.86594 26.5585 11.5855 25.8246 12.9657C25.0912 14.3465 23.3858 14.9151 22.0047 14.1808Z" fill="#D6BD98" stroke="#D6BD98" style="fill:#D6BD98;fill:color(display-p3 0.8392 0.7412 0.5961);fill-opacity:1;stroke:#D6BD98;stroke:color(display-p3 0.8392 0.7412 0.5961);stroke-opacity:1;" stroke-width="0.88452"/>
<path d="M7.67719 4.45492C3.57233 6.63751 1.95491 11.9818 4.15697 16.1233C6.46284 20.46 12.8501 22.7527 17.2178 24.4286C17.2347 24.4357 17.9315 24.6893 18.4712 24.4023L18.5191 24.3768C19.0589 24.0899 19.2351 23.3721 19.2394 23.3537C20.2282 19.0773 21.3791 12.2813 19.1759 8.1376C16.9738 3.99613 12.4035 1.94191 7.67719 4.45492ZM17.864 23.0082C17.8538 23.0417 17.8348 23.0831 17.8175 23.1184C17.7782 23.114 17.7336 23.1056 17.6988 23.096L17.1714 22.8937C13.0345 21.3121 7.36972 19.1463 5.40855 15.4578C3.56801 11.9963 4.91161 7.53042 8.3425 5.70618C12.616 3.43391 16.234 5.62407 17.9243 8.80308C19.4132 11.6032 19.3928 16.3829 17.864 23.0082ZM9.64232 8.27085C7.56876 9.37337 6.78148 11.9485 7.88401 14.022C8.98654 16.0956 11.5616 16.8828 13.6352 15.7803C15.7087 14.6778 16.496 12.1027 15.3935 10.0292C14.291 7.9556 11.7159 7.16832 9.64232 8.27085ZM12.9697 14.5287C11.5895 15.2626 9.82616 14.7248 9.09214 13.3443C8.35829 11.9641 8.88417 10.2441 10.2643 9.51021C11.6455 8.77585 13.3646 9.30223 14.0985 10.6824C14.8331 12.0626 14.3508 13.7944 12.9697 14.5287Z" fill="#677D6A" stroke="#677D6A" style="fill:#677D6A;fill:color(display-p3 0.4039 0.4902 0.4157);fill-opacity:1;stroke:#677D6A;stroke:color(display-p3 0.4039 0.4902 0.4157);stroke-opacity:1;" stroke-width="0.88452"/>
</svg>
