<svg width="145" height="77" viewBox="0 0 145 77" fill="none" xmlns="http://www.w3.org/2000/svg">
<g filter="url(#filter0_d_498_2613)">
<g clip-path="url(#clip0_498_2613)" filter="url(#filter1_d_498_2613)">
<rect width="49.3217" height="59.5149" transform="translate(6 9.01074) rotate(-7)" fill="white"/>
<rect x="6.54965" y="9.44018" width="48.3353" height="58.5285" transform="rotate(-7 6.54965 9.44018)" fill="white"/>
<rect x="6.54965" y="9.44018" width="48.3353" height="58.5285" transform="rotate(-7 6.54965 9.44018)" stroke="black" stroke-width="0.986435"/>
<rect x="12.4928" y="14.6736" width="37.8133" height="36.1693" transform="rotate(-7 12.4928 14.6736)" fill="#1A3636" stroke="black" stroke-width="0.986435"/>
<path d="M32.4387 21.6196C28.9602 22.0467 26.385 25.4285 26.8242 29.0053C27.2841 32.7514 31.1693 36.163 33.7968 38.5734C33.8071 38.5831 34.23 38.9576 34.6871 38.9014L34.7274 38.8965C35.1851 38.8403 35.5021 38.375 35.5098 38.3631C37.355 35.573 39.9917 31.0215 39.5522 27.4425C39.113 23.8652 36.4443 21.1278 32.4387 21.6196ZM34.6332 37.7344C34.6169 37.7556 34.5925 37.78 34.5708 37.8008C34.5443 37.7864 34.5151 37.7681 34.4932 37.7516L34.1758 37.4602C31.6857 35.1816 28.2754 32.0606 27.8842 28.8746C27.5171 25.8843 29.6634 23.0567 32.5707 22.6997C36.1924 22.255 38.1538 24.8263 38.491 27.5723C38.7879 29.9907 37.49 33.4105 34.6332 37.7344ZM32.7986 24.8978C31.0416 25.1135 29.7949 26.7404 30.0148 28.5318C30.2348 30.3232 31.8381 31.6002 33.5951 31.3844C35.3521 31.1687 36.5988 29.5413 36.3789 27.7504C36.159 25.9596 34.5562 24.682 32.7986 24.8978ZM33.4623 30.3033C32.2924 30.447 31.1946 29.5733 31.0482 28.3808C30.9018 27.1883 31.7341 26.1018 32.9041 25.9581C34.0745 25.8144 35.1445 26.6674 35.2909 27.8599C35.4378 29.0522 34.6328 30.1596 33.4623 30.3033Z" fill="white"/>
<rect x="17.3616" y="54.3264" width="37.8133" height="7.23386" transform="rotate(-7 17.3616 54.3264)" fill="#393939"/>
</g>
<rect x="47.7818" y="4.24078" width="47.6777" height="58.5285" fill="white"/>
<rect x="47.7818" y="4.24078" width="47.6777" height="58.5285" stroke="black" stroke-width="0.986435"/>
<rect x="52.7139" y="10.1595" width="37.8133" height="36.1693" fill="#677D6A" stroke="black" stroke-width="0.986435"/>
<path d="M72.1749 19.5305C68.6703 19.5305 65.7021 22.5733 65.7021 26.177C65.7021 29.9511 69.1426 33.8108 71.4568 36.5235C71.4658 36.5344 71.8399 36.9575 72.3005 36.9575H72.3411C72.8022 36.9575 73.1735 36.5344 73.1826 36.5235C75.3541 33.9791 78.5258 29.7828 78.5258 26.177C78.5258 22.5727 76.2106 19.5305 72.1749 19.5305ZM72.3891 35.7926C72.3704 35.8117 72.3432 35.8329 72.3192 35.8509C72.2946 35.8335 72.2679 35.8117 72.2481 35.7926L71.9686 35.4648C69.7747 32.8996 66.7703 29.3863 66.7703 26.1764C66.7703 23.1636 69.2452 20.6187 72.1744 20.6187C75.8232 20.6187 77.4566 23.4098 77.4566 26.1764C77.4566 28.613 75.7516 31.8491 72.3891 35.7926ZM72.1327 22.8281C70.3625 22.8281 68.9268 24.291 68.9268 26.0958C68.9268 27.9006 70.3625 29.3635 72.1327 29.3635C73.9029 29.3635 75.3386 27.9001 75.3386 26.0958C75.3386 24.2915 73.9034 22.8281 72.1327 22.8281ZM72.1327 28.2743C70.954 28.2743 69.9708 27.2733 69.9708 26.0718C69.9708 24.8704 70.9294 23.8934 72.1081 23.8934C73.2873 23.8934 74.2454 24.8704 74.2454 26.0718C74.2459 27.2733 73.3119 28.2743 72.1327 28.2743Z" fill="white"/>
<rect x="52.7139" y="50.1101" width="37.8133" height="7.23386" fill="#393939"/>
<g filter="url(#filter2_d_498_2613)">
<rect width="49.3217" height="59.5149" transform="translate(90.8525 3.09009) rotate(8)" fill="white"/>
<rect x="91.2723" y="3.64715" width="48.3353" height="58.5285" transform="rotate(8 91.2723 3.64715)" fill="white"/>
<rect x="91.2723" y="3.64715" width="48.3353" height="58.5285" transform="rotate(8 91.2723 3.64715)" stroke="black" stroke-width="0.986435"/>
<rect x="95.6583" y="10.2404" width="37.8133" height="36.1693" transform="rotate(8 95.6583 10.2404)" fill="#D6BD98" stroke="black" stroke-width="0.986435"/>
<path d="M113.106 22.0756C109.636 21.5879 106.273 24.1879 105.772 27.7566C105.246 31.494 108.116 35.7949 110.03 38.8033C110.038 38.8153 110.349 39.2864 110.805 39.3505L110.845 39.3562C111.302 39.4204 111.729 39.053 111.739 39.0435C114.244 36.826 117.969 33.112 118.47 29.5413C118.972 25.9721 117.103 22.6373 113.106 22.0756ZM111.055 38.2093C111.034 38.2256 111.004 38.2428 110.978 38.2572C110.956 38.2366 110.932 38.2113 110.916 38.1897L110.684 37.8261C108.869 34.9806 106.383 31.0834 106.829 27.9047C107.249 24.9212 110.054 22.7454 112.954 23.1531C116.568 23.6609 117.797 26.6522 117.412 29.3919C117.073 31.8048 114.934 34.7721 111.055 38.2093ZM112.606 25.3353C110.853 25.0889 109.227 26.3377 108.976 28.125C108.725 29.9123 109.943 31.5607 111.696 31.807C113.449 32.0534 115.074 30.8041 115.325 29.0173C115.577 27.2306 114.359 25.5817 112.606 25.3353ZM111.848 30.7284C110.68 30.5644 109.846 29.4363 110.013 28.2466C110.18 27.0568 111.266 26.2227 112.433 26.3868C113.601 26.5509 114.413 27.6517 114.246 28.8415C114.08 30.0313 113.015 30.8925 111.848 30.7284Z" fill="white"/>
<rect x="90.0984" y="49.8022" width="37.8133" height="7.23386" transform="rotate(8 90.0984 49.8022)" fill="#393939"/>
</g>
</g>
<defs>
<filter id="filter0_d_498_2613" x="2.544" y="0.984" width="141.758" height="73.9541" filterUnits="userSpaceOnUse" color-interpolation-filters="sRGB">
<feFlood flood-opacity="0" result="BackgroundImageFix"/>
<feColorMatrix in="SourceAlpha" type="matrix" values="0 0 0 0 0 0 0 0 0 0 0 0 0 0 0 0 0 0 127 0" result="hardAlpha"/>
<feOffset dx="0.576" dy="2.016"/>
<feGaussianBlur stdDeviation="2.016"/>
<feComposite in2="hardAlpha" operator="out"/>
<feColorMatrix type="matrix" values="0 0 0 0 0 0 0 0 0 0 0 0 0 0 0 0 0 0 0.25 0"/>
<feBlend mode="normal" in2="BackgroundImageFix" result="effect1_dropShadow_498_2613"/>
<feBlend mode="normal" in="SourceGraphic" in2="effect1_dropShadow_498_2613" result="shape"/>
</filter>
<filter id="filter1_d_498_2613" x="0.739014" y="0.369507" width="66.7292" height="75.604" filterUnits="userSpaceOnUse" color-interpolation-filters="sRGB">
<feFlood flood-opacity="0" result="BackgroundImageFix"/>
<feColorMatrix in="SourceAlpha" type="matrix" values="0 0 0 0 0 0 0 0 0 0 0 0 0 0 0 0 0 0 127 0" result="hardAlpha"/>
<feOffset dy="2.63049"/>
<feGaussianBlur stdDeviation="2.63049"/>
<feComposite in2="hardAlpha" operator="out"/>
<feColorMatrix type="matrix" values="0 0 0 0 0 0 0 0 0 0 0 0 0 0 0 0 0 0 0.25 0"/>
<feBlend mode="normal" in2="BackgroundImageFix" result="effect1_dropShadow_498_2613"/>
<feBlend mode="normal" in="SourceGraphic" in2="effect1_dropShadow_498_2613" result="shape"/>
</filter>
<filter id="filter2_d_498_2613" x="77.3086" y="0.459595" width="67.6467" height="76.322" filterUnits="userSpaceOnUse" color-interpolation-filters="sRGB">
<feFlood flood-opacity="0" result="BackgroundImageFix"/>
<feColorMatrix in="SourceAlpha" type="matrix" values="0 0 0 0 0 0 0 0 0 0 0 0 0 0 0 0 0 0 127 0" result="hardAlpha"/>
<feOffset dy="2.63049"/>
<feGaussianBlur stdDeviation="2.63049"/>
<feComposite in2="hardAlpha" operator="out"/>
<feColorMatrix type="matrix" values="0 0 0 0 0 0 0 0 0 0 0 0 0 0 0 0 0 0 0.25 0"/>
<feBlend mode="normal" in2="BackgroundImageFix" result="effect1_dropShadow_498_2613"/>
<feBlend mode="normal" in="SourceGraphic" in2="effect1_dropShadow_498_2613" result="shape"/>
</filter>
<clipPath id="clip0_498_2613">
<rect width="49.3217" height="59.5149" fill="white" transform="translate(6 9.01074) rotate(-7)"/>
</clipPath>
</defs>
</svg>
