<svg width="499" height="1725" viewBox="0 0 499 1725" fill="none" xmlns="http://www.w3.org/2000/svg">
<path d="M61.5 68.0037C39.6967 49.6429 -33 0.503662 -35.4548 1.00378H-60L-28 1723.5C153.574 1685.5 455 1694 497.5 1425C511.503 1336.37 339.56 1322.64 311 1256C285.818 1197.25 337 1144.15 337 1085.5C337 1004.04 196 976.504 177 916.004C149.968 829.928 213.975 775.636 270.5 736.504C340.173 688.268 391.5 649.222 391.5 556.004C391.5 470.111 287.475 448.479 237 398.004C162.676 323.68 129 250.504 118.49 153.924C114.45 116.799 91.4776 93.2479 61.5 68.0037Z" fill="#D6BD98" stroke="#D6BD98" stroke-linecap="round"/>
</svg>
