<svg width="599" height="1707" viewBox="0 0 599 1707" fill="none" xmlns="http://www.w3.org/2000/svg">
<path d="M425.754 117.182C436.347 101.88 488.711 18.8422 488.711 0H598.753V1706.18C597.168 1691.91 551.474 1648.42 541.795 1638.74C476.358 1573.3 445.872 1464.1 378.753 1409.18C296.275 1341.7 216.744 1266.28 250.253 1151.18C261.753 1111.68 298.753 1079.89 298.753 1041.68C298.753 981.697 197.265 918.89 148.753 899.182C98.2673 878.672 5.70989 823.853 2.25349 758.182C-0.642466 703.159 21.6218 647.63 51.2536 603.182C81.2428 558.198 138.911 519.946 169.754 473.682C208.435 415.659 127.632 337.472 163.254 279.182C228.753 172.002 351.845 223.939 425.754 117.182Z" fill="#677D6A" stroke="#677D6A" stroke-width="3" stroke-linecap="round"/>
</svg>
